<svg width="1500" height="1192" xmlns="http://www.w3.org/2000/svg" xmlns:xlink="http://www.w3.org/1999/xlink" xml:space="preserve" overflow="hidden"><g transform="translate(-54 -407)"><path d="M65.5002 483.778C65.5002 447.174 95.1737 417.5 131.778 417.5L1476.22 417.5C1512.83 417.5 1542.5 447.174 1542.5 483.778L1542.5 1516.22C1542.5 1552.83 1512.83 1582.5 1476.22 1582.5L131.778 1582.5C95.1737 1582.5 65.5002 1552.83 65.5002 1516.22Z" stroke="#23334F" stroke-width="20.625" stroke-miterlimit="8" fill="#C5ECCA" fill-rule="evenodd"/><path d="M1542.5 571.5 1542.5 1527.15C1542.5 1561.03 1512.8 1588.5 1476.16 1588.5L130.836 1588.5C94.2001 1588.5 64.5001 1561.03 64.5001 1527.15L64.5001 571.5" stroke="#23334F" stroke-width="20.625" stroke-miterlimit="8" fill="#F9FAFE" fill-rule="evenodd"/><path d="M65.5002 571.5 1542.87 571.501" stroke="#23334F" stroke-width="20.625" stroke-miterlimit="8" fill="none" fill-rule="evenodd"/><path d="M163.5 828.5 1443.17 828.5" stroke="#23334F" stroke-width="20.625" stroke-linecap="round" stroke-linejoin="round" stroke-miterlimit="10" fill="none" fill-rule="evenodd"/><path d="M163.5 1073.5 1443.17 1073.5" stroke="#23334F" stroke-width="20.625" stroke-linecap="round" stroke-linejoin="round" stroke-miterlimit="10" fill="none" fill-rule="evenodd"/><path d="M163.5 1315.5 1443.17 1315.5" stroke="#23334F" stroke-width="20.625" stroke-linecap="round" stroke-linejoin="round" stroke-miterlimit="10" fill="none" fill-rule="evenodd"/><path d="M0 0 0.000360892 1001.49" stroke="#23334F" stroke-width="20.625" stroke-linecap="round" stroke-linejoin="round" stroke-miterlimit="10" fill="none" fill-rule="evenodd" transform="matrix(1 0 0 -1 482.5 1500.99)"/><path d="M0 0 0.000360892 1001.49" stroke="#23334F" stroke-width="20.625" stroke-linecap="round" stroke-linejoin="round" stroke-miterlimit="10" fill="none" fill-rule="evenodd" transform="matrix(1 0 0 -1 803.5 1500.99)"/><path d="M0 0 0.000360892 1001.49" stroke="#23334F" stroke-width="20.625" stroke-linecap="round" stroke-linejoin="round" stroke-miterlimit="10" fill="none" fill-rule="evenodd" transform="matrix(1 0 0 -1 1153.5 1500.99)"/><rect x="163" y="895" width="89" height="121" stroke="#23334F" stroke-width="10.3125" stroke-linecap="round" stroke-linejoin="round" stroke-miterlimit="10" fill="#C5ECCA"/><rect x="252" y="970" width="45" height="46.0001" stroke="#23334F" stroke-width="10.3125" stroke-linecap="round" stroke-linejoin="round" stroke-miterlimit="10" fill="#C5ECCA"/><rect x="163" y="1172" width="46.0001" height="90.0001" stroke="#23334F" stroke-width="10.3125" stroke-linecap="round" stroke-linejoin="round" stroke-miterlimit="10" fill="#DAE3F3"/><rect x="208" y="1166" width="46.0001" height="95.9999" stroke="#23334F" stroke-width="10.3125" stroke-linecap="round" stroke-linejoin="round" stroke-miterlimit="10" fill="#DAE3F3"/><rect x="277" y="1213" width="46.0001" height="48.9998" stroke="#23334F" stroke-width="10.3125" stroke-linecap="round" stroke-linejoin="round" stroke-miterlimit="10" fill="#DAE3F3"/><rect x="1235" y="895" width="88" height="121" stroke="#23334F" stroke-width="10.3125" stroke-linecap="round" stroke-linejoin="round" stroke-miterlimit="10" fill="#FBE5D6"/><rect x="1323" y="970" width="46.0001" height="46.0001" stroke="#23334F" stroke-width="10.3125" stroke-linecap="round" stroke-linejoin="round" stroke-miterlimit="10" fill="#FBE5D6"/><rect x="1235" y="1172" width="45" height="90.0001" stroke="#23334F" stroke-width="10.3125" stroke-linecap="round" stroke-linejoin="round" stroke-miterlimit="10" fill="#E2F0D9"/><rect x="1280" y="1166" width="45.9998" height="95.9999" stroke="#23334F" stroke-width="10.3125" stroke-linecap="round" stroke-linejoin="round" stroke-miterlimit="10" fill="#E2F0D9"/><rect x="1349" y="1213" width="45" height="48.9998" stroke="#23334F" stroke-width="10.3125" stroke-linecap="round" stroke-linejoin="round" stroke-miterlimit="10" fill="#E2F0D9"/><path d="M173 1385 420.14 1385" stroke="#404040" stroke-width="13.75" stroke-linecap="round" stroke-linejoin="round" stroke-miterlimit="10" fill="none" fill-rule="evenodd"/><path d="M173 1430 420.14 1430" stroke="#404040" stroke-width="13.75" stroke-linecap="round" stroke-linejoin="round" stroke-miterlimit="10" fill="none" fill-rule="evenodd"/><path d="M173 1475 420.14 1475" stroke="#404040" stroke-width="13.75" stroke-linecap="round" stroke-linejoin="round" stroke-miterlimit="10" fill="none" fill-rule="evenodd"/><path d="M514 1385 761.14 1385" stroke="#404040" stroke-width="13.75" stroke-linecap="round" stroke-linejoin="round" stroke-miterlimit="10" fill="none" fill-rule="evenodd"/><path d="M514 1430 761.14 1430" stroke="#404040" stroke-width="13.75" stroke-linecap="round" stroke-linejoin="round" stroke-miterlimit="10" fill="none" fill-rule="evenodd"/><path d="M514 1475 761.14 1475" stroke="#404040" stroke-width="13.75" stroke-linecap="round" stroke-linejoin="round" stroke-miterlimit="10" fill="none" fill-rule="evenodd"/><path d="M854 1385 1101.14 1385" stroke="#404040" stroke-width="13.75" stroke-linecap="round" stroke-linejoin="round" stroke-miterlimit="10" fill="none" fill-rule="evenodd"/><path d="M854 1430 1101.14 1430" stroke="#404040" stroke-width="13.75" stroke-linecap="round" stroke-linejoin="round" stroke-miterlimit="10" fill="none" fill-rule="evenodd"/><path d="M854 1475 1101.14 1475" stroke="#404040" stroke-width="13.75" stroke-linecap="round" stroke-linejoin="round" stroke-miterlimit="10" fill="none" fill-rule="evenodd"/><path d="M1195 1385 1442.14 1385" stroke="#404040" stroke-width="13.75" stroke-linecap="round" stroke-linejoin="round" stroke-miterlimit="10" fill="none" fill-rule="evenodd"/><path d="M1195 1430 1442.14 1430" stroke="#404040" stroke-width="13.75" stroke-linecap="round" stroke-linejoin="round" stroke-miterlimit="10" fill="none" fill-rule="evenodd"/><path d="M1195 1475 1442.14 1475" stroke="#404040" stroke-width="13.75" stroke-linecap="round" stroke-linejoin="round" stroke-miterlimit="10" fill="none" fill-rule="evenodd"/><rect x="572" y="642" width="88" height="121" stroke="#23334F" stroke-width="10.3125" stroke-linecap="round" stroke-linejoin="round" stroke-miterlimit="10" fill="#E2CFF1"/><rect x="660" y="717" width="46.0001" height="46.0001" stroke="#23334F" stroke-width="10.3125" stroke-linecap="round" stroke-linejoin="round" stroke-miterlimit="10" fill="#E2CFF1"/><rect x="935" y="644" width="50.9999" height="121" stroke="#23334F" stroke-width="10.3125" stroke-linecap="round" stroke-linejoin="round" stroke-miterlimit="10" fill="#D0CECE"/><rect x="890" y="719" width="45.0001" height="45.9997" stroke="#23334F" stroke-width="10.3125" stroke-linecap="round" stroke-linejoin="round" stroke-miterlimit="10" fill="#D0CECE"/><rect x="1030" y="644" width="50.0002" height="121" stroke="#23334F" stroke-width="10.3125" stroke-linecap="round" stroke-linejoin="round" stroke-miterlimit="10" fill="#D0CECE"/><path d="M471 1000C471 815.537 620.537 666 805 666 989.463 666 1139 815.537 1139 1000 1139 1184.46 989.463 1334 805 1334 620.537 1334 471 1184.46 471 1000Z" stroke="#23334F" stroke-width="13.75" stroke-miterlimit="8" fill="#FACF67" fill-rule="evenodd"/><path d="M805 723C957.983 723 1082 846.793 1082 999.5" stroke="#404040" stroke-width="13.75" stroke-linecap="round" stroke-linejoin="round" stroke-miterlimit="10" fill="none" fill-rule="evenodd"/><path d="M805 1276C652.017 1276 528 1152.21 528 999.5" stroke="#404040" stroke-width="13.75" stroke-linecap="round" stroke-linejoin="round" stroke-miterlimit="10" fill="none" fill-rule="evenodd"/><g><g><g><path d="M925.313 1001.44C923.594 1001.44 922.219 1000.41 921.188 999.375 919.469 997.656 918.438 994.562 918.438 991.469 918.438 987 921.531 983.562 924.281 981.5L924.625 981.156C931.156 984.594 932.188 988.031 932.188 991.125 932.188 996.625 929.094 1001.44 925.313 1001.44ZM831.813 933.719C830.781 936.125 828.031 937.844 825.625 937.844 824.594 937.844 823.563 937.5 822.875 937.156 811.875 932 799.844 929.25 788.5 929.25 781.969 929.25 775.438 930.281 768.906 932 765.125 933.031 761.344 930.969 760.313 927.187 759.281 923.406 761.344 919.625 765.125 918.594 772.688 916.531 780.594 915.5 788.156 915.5 801.219 915.5 815.313 918.594 828.031 924.437 831.813 926.156 833.531 930.281 831.813 933.719ZM950.406 960.187C941.813 958.812 931.156 961.219 922.563 966.031 914.656 964.312 902.625 964.312 891.625 968.094 875.469 929.594 830.438 901.75 787.813 901.75 773.031 901.75 758.25 905.187 744.844 911.375L702.563 891.437C699.813 890.062 696.719 892.812 697.75 895.562L711.5 934.406C703.25 943 696.375 952.969 691.563 963.969 690.875 966.031 689.156 967.406 686.75 968.094L674.375 971.187C668.188 972.562 664.063 978.062 664.063 984.594L664.063 1011.41C664.063 1017.59 668.188 1023.09 674.375 1024.81L687.094 1027.91C689.156 1028.59 690.875 1029.97 691.906 1032.03 697.75 1045.44 706.688 1057.47 717.688 1067.44 718.719 1068.47 719.75 1069.84 720.094 1071.56L725.25 1102.84C725.938 1106.28 728.688 1108.69 732.125 1108.69L754.813 1108.69C758.25 1108.69 761 1106.28 761.688 1102.84L763.406 1091.84C771.313 1093.91 779.563 1094.94 788.156 1094.94 797.438 1094.94 807.063 1093.56 816 1091.16L818.063 1102.84C818.75 1106.28 821.5 1108.69 824.938 1108.69L847.625 1108.69C851.063 1108.69 853.813 1106.28 854.5 1102.84L859.656 1071.56C860 1069.84 860.688 1068.47 862.063 1067.44 883.031 1049.22 897.813 1025.16 897.813 998 897.813 992.156 897.125 986.656 895.75 981.156 899.875 979.781 904.344 978.75 908.469 978.75 906.063 982.531 904.688 986.656 904.688 991.125 904.344 998 907.094 1004.53 911.563 1009.34 915.344 1013.12 920.156 1015.53 925.313 1015.53 936.656 1015.53 945.938 1004.87 945.938 991.469 945.938 984.937 943.531 979.094 938.719 974.625 942.156 973.937 945.25 973.594 948.344 973.937 952.125 974.625 955.563 971.875 956.25 968.094 956.594 964.312 954.188 960.875 950.406 960.187Z" fill="#23334F"/></g></g></g></g></svg>